<svg width="160" height="160" viewBox="0 0 160 160" fill="none" xmlns="http://www.w3.org/2000/svg">
<g clip-path="url(#clip0_191_588)">
<path d="M79 160C106.614 160 129 137.614 129 110C129 82.3858 106.614 60 79 60C51.3858 60 29 82.3858 29 110C29 137.614 51.3858 160 79 160Z" fill="#F7C568"/>
<path d="M79 160C106.614 160 129 137.614 129 110C129 82.3858 106.614 60 79 60C51.3858 60 29 82.3858 29 110C29 137.614 51.3858 160 79 160Z" fill="#F7C568"/>
<path d="M60 50C60 77.6142 82.3858 100 110 100C137.614 100 160 77.6142 160 50C160 22.3858 137.614 0 110 0C82.3858 0 60 22.3858 60 50Z" fill="#FF69A8"/>
<path d="M0 50C0 77.6142 22.3858 100 50 100C77.6142 100 100 77.6142 100 50C100 22.3858 77.6142 0 50 0C22.3858 0 0 22.3858 0 50Z" fill="#44B2BA"/>
<path fill-rule="evenodd" clip-rule="evenodd" d="M80 10C92.1445 19.1221 100 33.6455 100 50.0037C100 66.3618 92.1445 80.8853 80 90.0073C67.8555 80.8853 60 66.3618 60 50.0037C60 33.6455 67.8555 19.1221 80 10Z" fill="#382450" fill-opacity="0.52"/>
<path fill-rule="evenodd" clip-rule="evenodd" d="M62 63.0649C67.7445 84.343 87.1817 100 110.276 100C116.348 100 122.167 98.9176 127.552 96.9351C121.807 75.657 102.37 60 79.2758 60C73.2036 60 67.3842 61.0824 62 63.0649Z" fill="#55273C" fill-opacity="0.4"/>
<path fill-rule="evenodd" clip-rule="evenodd" d="M31 96.2305C36.8794 98.6597 43.3232 100 50.08 100C72.9185 100 92.1806 84.6878 98.1601 63.7695C92.2807 61.3403 85.8369 60 79.08 60C56.2416 60 36.9795 75.3122 31 96.2305Z" fill="#48684C" fill-opacity="0.4"/>
<path fill-rule="evenodd" clip-rule="evenodd" d="M98.3559 63.7695C95.3234 74.3781 88.8747 83.5448 80.2758 90.0037C71.4872 83.4022 64.9446 73.9721 62 63.0649C67.3842 61.0824 73.2036 60 79.2758 60C86.0327 60 92.4765 61.3403 98.3559 63.7695Z" fill="#222838"/>
</g>
<defs>
<clipPath id="clip0_191_588">
<rect width="160" height="160" fill="white"/>
</clipPath>
</defs>
</svg>
