<svg width="151" height="94" viewBox="0 0 151 94" fill="none" xmlns="http://www.w3.org/2000/svg">
<path d="M80.0073 74C70.8853 86.1445 56.3618 94 40.0037 94C23.6455 94 9.12206 86.1445 0 74C9.12206 61.8555 23.6455 54 40.0037 54C56.3618 54 70.8853 61.8555 80.0073 74Z" fill="black"/>
<path d="M80.0073 74C70.8853 86.1445 56.3618 94 40.0037 94C23.6455 94 9.12206 86.1445 0 74C9.12206 61.8555 23.6455 54 40.0037 54C56.3618 54 70.8853 61.8555 80.0073 74Z" fill="black"/>
<path d="M70.0083 74C79.1304 61.8555 93.6538 54 110.012 54C126.37 54 140.894 61.8555 150.016 74C140.894 86.1445 126.37 94 110.012 94C93.6538 94 79.1304 86.1445 70.0083 74Z" fill="black"/>
<path d="M70.0083 74C79.1304 61.8555 93.6538 54 110.012 54C126.37 54 140.894 61.8555 150.016 74C140.894 86.1445 126.37 94 110.012 94C93.6538 94 79.1304 86.1445 70.0083 74Z" fill="black"/>
<path d="M75.018 79.713C62.8735 70.591 55.0078 56.3618 55.0078 40.0037C55.0078 23.6455 62.8633 9.12206 75.0078 0C87.1523 9.12206 95.0078 23.6455 95.0078 40.0037C95.0078 56.3618 87.1624 70.591 75.018 79.713Z" fill="black"/>
<path d="M75.018 79.713C62.8735 70.591 55.0078 56.3618 55.0078 40.0037C55.0078 23.6455 62.8633 9.12206 75.0078 0C87.1523 9.12206 95.0078 23.6455 95.0078 40.0037C95.0078 56.3618 87.1624 70.591 75.018 79.713Z" fill="black"/>
</svg>
