<svg width="97" height="90" viewBox="0 0 97 90" fill="none" xmlns="http://www.w3.org/2000/svg">
<path fill-rule="evenodd" clip-rule="evenodd" d="M0 86.2305C5.87941 88.6597 12.3232 90 19.08 90C41.9185 90 61.1806 74.6878 67.1601 53.7695C61.2807 51.3403 54.8369 50 48.08 50C25.2416 50 5.97952 65.3122 0 86.2305Z" fill="#44B2BA"/>
<path fill-rule="evenodd" clip-rule="evenodd" d="M49 0C61.1445 9.12206 69 23.6455 69 40.0037C69 56.3618 61.1445 70.8853 49 80.0073C36.8555 70.8853 29 56.3618 29 40.0037C29 23.6455 36.8555 9.12206 49 0Z" fill="#AC8EFF"/>
<path fill-rule="evenodd" clip-rule="evenodd" d="M31 53.0649C36.7445 74.343 56.1817 90 79.2758 90C85.3481 90 91.1675 88.9176 96.5517 86.9351C90.8072 65.657 71.3699 50 48.2758 50C42.2036 50 36.3842 51.0824 31 53.0649Z" fill="#FF69A8"/>
<path fill-rule="evenodd" clip-rule="evenodd" d="M67.3559 53.7695C64.3234 64.3781 57.8747 73.5448 49.2758 80.0037C40.4872 73.4022 33.9446 63.9721 31 53.0649C36.3842 51.0824 42.2036 50 48.2758 50C55.0327 50 61.4765 51.3403 67.3559 53.7695Z" fill="#222838"/>
</svg>
